<svg width="16" height="16" viewBox="0 0 16 16" fill="none" xmlns="http://www.w3.org/2000/svg">
    <path d="M11.9277 5.33809C11.7105 5.07727 11.3576 4.97311 11.0336 5.07428L11.0047 5.08331C10.8271 5.13876 10.6761 5.25752 10.5804 5.41701C10.4125 5.69674 10.4422 6.05251 10.6543 6.30047L13.0407 9.09129L10.2983 11.9316C10.0911 12.3206 10.2385 12.8038 10.6274 13.0109C11.0164 13.2181 11.3381 13.011 11.7068 12.6818L14.5798 9.59637C14.7686 9.24189 14.7528 8.81338 14.5382 8.47383L11.9277 5.33809Z"
          fill="white"/>
    <path d="M11.9277 5.33809C11.7105 5.07727 11.3576 4.97311 11.0336 5.07428L11.0047 5.08331C10.8271 5.13876 10.6761 5.25752 10.5804 5.41701C10.4125 5.69674 10.4422 6.05251 10.6543 6.30047L13.0407 9.09129L10.2983 11.9316C10.0911 12.3206 10.2385 12.8038 10.6274 13.0109C11.0164 13.2181 11.3381 13.011 11.7068 12.6818L14.5798 9.59637C14.7686 9.24189 14.7528 8.81338 14.5382 8.47383L11.9277 5.33809Z"
          fill="url(#paint0_linear_18502_43322)"/>
    <path d="M8.61779 8.31127C8.71863 8.05794 8.65286 7.76866 8.45239 7.58384L7.61554 6.81233C7.50024 6.70603 7.31386 6.75151 7.26049 6.89898L5.59978 11.4871L5.33736 11.487L2.91517 8.98821L5.07492 6.18348C5.29824 5.8036 5.1713 5.31462 4.79139 5.09132C4.41148 4.86801 3.92247 4.99494 3.69915 5.37482L1.39178 8.43066C1.17971 8.79141 1.18688 9.24039 1.41039 9.59418L4.12877 12.5618C4.33358 12.886 4.69028 13.0826 5.07377 13.0827L5.96937 13.0829C6.47881 13.0829 6.92389 12.7386 7.05175 12.2455L8.61779 8.31127Z"
          fill="white"/>
    <path d="M8.61779 8.31127C8.71863 8.05794 8.65286 7.76866 8.45239 7.58384L7.61554 6.81233C7.50024 6.70603 7.31386 6.75151 7.26049 6.89898L5.59978 11.4871L5.33736 11.487L2.91517 8.98821L5.07492 6.18348C5.29824 5.8036 5.1713 5.31462 4.79139 5.09132C4.41148 4.86801 3.92247 4.99494 3.69915 5.37482L1.39178 8.43066C1.17971 8.79141 1.18688 9.24039 1.41039 9.59418L4.12877 12.5618C4.33358 12.886 4.69028 13.0826 5.07377 13.0827L5.96937 13.0829C6.47881 13.0829 6.92389 12.7386 7.05175 12.2455L8.61779 8.31127Z"
          fill="url(#paint1_linear_18502_43322)"/>
    <path d="M6.7348 4.63823C6.5492 4.56318 6.55652 4.29793 6.74597 4.23323L7.80372 3.87201C7.85945 3.85297 7.905 3.81203 7.92985 3.75863L8.39579 2.75737C8.47571 2.58562 8.72219 2.59242 8.79252 2.76831L9.20253 3.79375C9.2244 3.84843 9.26762 3.89183 9.32222 3.9139L10.3584 4.3329C10.544 4.40795 10.5367 4.6732 10.3473 4.7379L9.28951 5.09912C9.23378 5.11816 9.18823 5.1591 9.16338 5.2125L8.69744 6.21376C8.61752 6.38551 8.37104 6.37871 8.30071 6.20282L7.8907 5.17738C7.86883 5.1227 7.82561 5.0793 7.77101 5.05723L6.7348 4.63823Z"
          fill="url(#paint2_linear_18502_43322)"/>
    <path d="M6.7348 4.63823C6.5492 4.56318 6.55652 4.29793 6.74597 4.23323L7.80372 3.87201C7.85945 3.85297 7.905 3.81203 7.92985 3.75863L8.39579 2.75737C8.47571 2.58562 8.72219 2.59242 8.79252 2.76831L9.20253 3.79375C9.2244 3.84843 9.26762 3.89183 9.32222 3.9139L10.3584 4.3329C10.544 4.40795 10.5367 4.6732 10.3473 4.7379L9.28951 5.09912C9.23378 5.11816 9.18823 5.1591 9.16338 5.2125L8.69744 6.21376C8.61752 6.38551 8.37104 6.37871 8.30071 6.20282L7.8907 5.17738C7.86883 5.1227 7.82561 5.0793 7.77101 5.05723L6.7348 4.63823Z"
          fill="url(#paint3_linear_18502_43322)"/>
    <defs>
        <linearGradient id="paint0_linear_18502_43322" x1="13.2655" y1="5.00223" x2="1.36965" y2="10.068"
                        gradientUnits="userSpaceOnUse">
            <stop stop-color="#49ECE3"/>
            <stop offset="0.24" stop-color="#7974FF"/>
            <stop offset="0.513837" stop-color="#8248FE"/>
            <stop offset="1" stop-color="#FE48F5"/>
        </linearGradient>
        <linearGradient id="paint1_linear_18502_43322" x1="13.2655" y1="5.00223" x2="1.36965" y2="10.068"
                        gradientUnits="userSpaceOnUse">
            <stop stop-color="#49ECE3"/>
            <stop offset="0.24" stop-color="#7974FF"/>
            <stop offset="0.513837" stop-color="#8248FE"/>
            <stop offset="1" stop-color="#FE48F5"/>
        </linearGradient>
        <linearGradient id="paint2_linear_18502_43322" x1="4.27316" y1="6.78257" x2="4.91857" y2="1.23757"
                        gradientUnits="userSpaceOnUse">
            <stop stop-color="#A0BEFF"/>
            <stop offset="0.61826" stop-color="#3570EE"/>
            <stop offset="0.983132" stop-color="#DC34EB"/>
        </linearGradient>
        <linearGradient id="paint3_linear_18502_43322" x1="6.11686" y1="2.36743" x2="6.96765" y2="6.98436"
                        gradientUnits="userSpaceOnUse">
            <stop stop-color="#49ECE3"/>
            <stop offset="0.24" stop-color="#7974FF"/>
            <stop offset="0.513837" stop-color="#8248FE"/>
            <stop offset="1" stop-color="#FE48F5"/>
        </linearGradient>
    </defs>
</svg>
