<svg t="1726209268109" class="icon" viewBox="0 0 1024 1024" version="1.1" xmlns="http://www.w3.org/2000/svg" p-id="1490"
     width="16" height="16">
    <path d="M382.828047 201.559657H198.346068a67.921977 67.921977 0 0 0-67.702948 67.921977 65.729599 65.729599 0 0 0 65.730643 67.701904h188.427632l-1.971262-135.623881z"
          fill="#073042" p-id="1491"></path>
    <path d="M803.064639 805.184126H198.127039a67.921977 67.921977 0 0 1-67.483919-67.701905V269.042533a67.921977 67.921977 0 0 0 72.084573 68.141005h501.74359s98.594399-8.545265 98.594399 65.7296v402.270988z"
          fill="#4285F4" p-id="1492"></path>
    <path d="M483.615866 479.381422a37.685526 37.685526 0 1 0 14.460095 72.302559 37.466497 37.466497 0 0 0-14.461138-72.303602z"
          p-id="1493"></path>
    <path d="M520.862291 565.26796a60.910958 60.910958 0 0 0-34.836062-109.550028h1.971263a57.623435 57.623435 0 0 1 10.735556 0V418.032406a12.050774 12.050774 0 0 0-5.696843-10.7366 11.831745 11.831745 0 0 0-12.049732 0 12.050774 12.050774 0 0 0-5.696843 10.7366v38.342614a61.129987 61.129987 0 0 0-26.730941 109.55107L337.036357 804.308009h72.74166l51.488534-109.55107a26.729898 26.729898 0 0 1 24.101548-15.117182 26.29184 26.29184 0 0 1 23.881476 15.117182l53.022781 109.55107h73.61882L520.861248 565.26796z m77.781417 228.304493a37.685526 37.685526 0 0 1-26.511912-64.196395 37.466497 37.466497 0 0 1 64.196395 26.510868 37.685526 37.685526 0 0 1-37.684483 37.685527z"
          fill="#3870B2" p-id="1494"></path>
    <path d="M342.952229 234.863558h258.75893v47.544967H342.952229v-47.544967z" fill="#FFFFFF" p-id="1495"></path>
    <path d="M463.457885 479.381422a37.466497 37.466497 0 1 1-26.730941 10.954586 38.123585 38.123585 0 0 1 26.730941-10.955629z m14.899196-21.911257V418.032406a12.050774 12.050774 0 0 0-5.696844-10.7366 11.831745 11.831745 0 0 0-12.050774 0 12.050774 12.050774 0 0 0-5.696843 10.7366v38.342614a61.129987 61.129987 0 0 0-26.729898 109.55107L288.176172 867.19023a33.302858 33.302858 0 0 0 2.410364 33.521887 33.740916 33.740916 0 0 0 30.455479 14.242108 33.083829 33.083829 0 0 0 27.167956-19.718879l93.3377-200.478407a26.94997 26.94997 0 0 1 24.101548-15.117182 26.29184 26.29184 0 0 1 23.881477 15.117182l95.74702 199.383261a33.083829 33.083829 0 1 0 59.596783-28.922275L500.70431 565.26796a60.691929 60.691929 0 0 0 21.910214-60.690887 61.349017 61.349017 0 0 0-43.820428-46.887879"
          fill="#073042" p-id="1496"></path>
    <path d="M564.244661 276.711681a17.528588 17.528588 0 0 1-12.707861-30.017421 17.747618 17.747618 0 0 1 30.23645 12.488833 17.528588 17.528588 0 0 1-17.528589 17.528588m-194.781563 0a17.528588 17.528588 0 0 1-12.488833-30.017421 17.747618 17.747618 0 1 1 24.977665 24.977665 17.308516 17.308516 0 0 1-12.488832 5.039756M570.598592 170.446048l35.056134-60.910958a7.449076 7.449076 0 0 0-12.707862-7.448034l-35.494192 61.787075a220.854374 220.854374 0 0 0-180.978556 0l-35.712178-61.787075a7.449076 7.449076 0 0 0-6.354974-3.725581 8.107207 8.107207 0 0 0-6.353931 3.725581 7.449076 7.449076 0 0 0 0 7.449077l35.275163 60.910958a208.584571 208.584571 0 0 0-107.797794 166.735404h422.865984A208.584571 208.584571 0 0 0 570.598592 170.447091"
          fill="#3DDC84" p-id="1497"></path>
    <path d="M742.373753 467.110576h-27.825044a3.505509 3.505509 0 0 0-3.506552 3.505509v439.299427a3.505509 3.505509 0 0 0 3.28648 3.504466h28.703246a60.910958 60.910958 0 0 0 60.690886-60.909915V406.200661a60.910958 60.910958 0 0 1-61.349016 60.910958z"
          fill="#073042" p-id="1498"></path>
</svg>