<svg t="1679553979311" class="icon" viewBox="0 0 1024 1024" version="1.1" xmlns="http://www.w3.org/2000/svg" p-id="2947" width="16" height="16"><path d="M945.702 441.778 750.377 632.265l46.273 269.046c0.536 3.768 0.536 6.991 0.536 10.759 0 13.995-6.455 26.903-22.059 26.903-7.533 0-15.066-2.688-21.527-6.454l-241.6-126.986L270.399 932.519c-6.998 3.766-13.995 6.454-21.528 6.454-15.604 0-22.594-12.908-22.594-26.903 0-3.768 0.536-6.991 1.072-10.759l46.275-269.046L77.761 441.778c-6.454-6.991-13.452-16.14-13.452-25.826 0-16.139 16.683-22.601 30.134-24.752l270.12-39.284 121.069-244.824c4.845-10.228 13.994-22.065 26.368-22.065 12.372 0 21.521 11.837 26.367 22.065l121.068 244.824L929.556 391.2c12.916 2.151 30.135 8.613 30.135 24.752C959.69 425.638 952.692 434.787 945.702 441.778z" p-id="2948" fill="#1296db"></path></svg>