<svg t="1725519071893" class="icon" viewBox="0 0 1024 1024" version="1.1" xmlns="http://www.w3.org/2000/svg" p-id="1946"
     width="16" height="16">
    <path d="M512 1024C229.23 1024 0 794.77 0 512S229.23 0 512 0s512 229.23 512 512-229.23 512-512 512z m0-109.714c222.171 0 402.286-180.115 402.286-402.286S734.17 109.714 512 109.714 109.714 289.83 109.714 512 289.83 914.286 512 914.286zM384 475.429h256a54.857 54.857 0 0 1 0 109.714H384a54.857 54.857 0 0 1 0-109.714z"
          p-id="1947" fill="#d4237a"></path>
</svg>