<svg t="1672278691025" class="icon" viewBox="0 0 1024 1024" version="1.1" xmlns="http://www.w3.org/2000/svg" p-id="7017" width="16" height="16"><path d="M258.986667 734.250667a31.957333 31.957333 0 0 1-28.672-46.208c4.437333-8.96 45.397333-87.637333 113.749333-87.637334 35.157333 0 60.885333 19.114667 81.578667 34.56 20.138667 14.976 33.322667 24.106667 50.517333 24.106667 12.16-0.128 43.690667-38.144 60.629333-58.538667 36.138667-43.562667 73.514667-88.576 121.173334-88.576 81.664 0 132.437333 108.586667 137.941333 120.96a31.957333 31.957333 0 0 1-58.410667 26.112c-12.202667-27.136-47.701333-83.072-79.530666-83.072-17.621333 0-50.304 39.381333-71.936 65.450667-34.858667 41.984-67.797333 81.664-109.909334 81.664-39.253333 0-66.688-20.437333-88.704-36.778667-18.261333-13.525333-30.122667-21.888-43.392-21.888-22.869333 0-48.298667 35.754667-56.405333 52.053334a31.744 31.744 0 0 1-28.629333 17.792zM366.122667 486.954667c-54.272 0-98.432-44.202667-98.432-98.474667s44.16-98.474667 98.432-98.474667a98.645333 98.645333 0 0 1 98.474666 98.474667 98.56 98.56 0 0 1-98.474666 98.474667zM366.08 354.005333a34.474667 34.474667 0 1 0 0.170667 68.949334 34.474667 34.474667 0 0 0-0.170667-68.949334z" fill="#130F26" p-id="7018"></path><path d="M512 938.666667C196.992 938.666667 85.333333 827.008 85.333333 512S196.992 85.333333 512 85.333333s426.666667 111.658667 426.666667 426.666667-111.658667 426.666667-426.666667 426.666667z m0-789.333334c-277.930667 0-362.666667 84.736-362.666667 362.666667s84.736 362.666667 362.666667 362.666667 362.666667-84.736 362.666667-362.666667-84.736-362.666667-362.666667-362.666667z" fill="#130F26" p-id="7019"></path></svg>