<svg t="1674284969217" class="icon" viewBox="0 0 1024 1024" version="1.1" xmlns="http://www.w3.org/2000/svg" p-id="2539" width="16" height="16"><path d="M541.572899 423.434796 541.572899 836.739083c0 16.167882-13.302688 29.572899-29.572899 29.572899s-29.572899-13.405016-29.572899-29.675227L482.427101 423.434796c0-16.167882 13.302688-29.572899 29.572899-29.572899S541.572899 407.164585 541.572899 423.434796zM1023.641851 512.051164c0 282.119316-229.522534 511.641851-511.641851 511.641851s-511.641851-229.522534-511.641851-511.641851 229.522534-511.641851 511.641851-511.641851S1023.641851 229.829519 1023.641851 512.051164zM964.598381 512.051164c0-249.681223-203.019486-452.598381-452.598381-452.598381S59.503947 262.369941 59.503947 512.051164 262.421105 964.649545 512.102328 964.649545 964.598381 761.630059 964.598381 512.051164zM512.511642 178.358349c-32.233437 0-58.531828 26.298391-58.531828 58.531828s26.298391 58.531828 58.531828 58.531828 58.531828-26.298391 58.531828-58.531828S544.64275 178.358349 512.511642 178.358349z" p-id="2540" fill="#8a8a8a"></path></svg>