<?xml version="1.0" encoding="UTF-8"?>
<svg version="1.0" xmlns="http://www.w3.org/2000/svg"
     width="161.000000pt" height="130.000000pt" viewBox="0 0 161.000000 130.000000"
     preserveAspectRatio="xMidYMid meet">

    <g transform="translate(0.000000,130.000000) scale(0.100000,-0.100000)"
       fill="#000000" stroke="none">
        <path d="M449 1190 c-135 -11 -192 -32 -254 -94 -85 -85 -108 -201 -86 -430
29 -294 157 -473 382 -533 96 -25 273 -23 364 5 142 43 246 135 313 274 32 67
41 77 63 78 41 0 144 57 184 102 65 71 80 117 80 243 0 96 -3 116 -24 159 -47
93 -132 156 -247 182 -80 18 -615 28 -775 14z m747 -125 c129 -30 194 -107
194 -230 -1 -137 -85 -230 -222 -242 l-58 -6 -11 -41 c-34 -127 -118 -234
-222 -282 -60 -28 -68 -29 -212 -29 -142 0 -153 2 -207 27 -165 77 -235 229
-240 520 -2 147 7 190 50 231 48 46 96 59 252 67 188 10 609 1 676 -15z"/>
        <path d="M1114 937 c-2 -7 -3 -58 -2 -113 l3 -99 41 -3 c32 -2 48 2 71 22 56
47 50 150 -10 186 -37 23 -95 26 -103 7z"/>
        <path d="M487 926 c-144 -52 -156 -230 -26 -371 51 -55 184 -145 215 -145 32
0 162 89 217 149 61 65 86 121 87 189 0 66 -18 110 -59 145 -68 57 -148 56
-215 -4 l-33 -28 -28 29 c-25 26 -80 51 -110 50 -5 -1 -27 -7 -48 -14z"/>
    </g>
</svg>