<svg width="16" height="16" viewBox="0 0 16 16" xmlns="http://www.w3.org/2000/svg">
  <path fill="#2B2D31" d="M8 1.4c2.05 0 3.35 1.72 3.35 4.13 0 .47.16.92.42 1.33.78.82 1.23 1.9 1.23 3.08 0 2.54-2.1 4.46-5 4.46s-5-1.92-5-4.46c0-1.18.45-2.26 1.23-3.08.26-.41.42-.86.42-1.33C4.65 3.12 5.95 1.4 8 1.4Z"/>
  <path fill="#FFFFFF" d="M5.45 6.2c0-2.2.95-3.65 2.55-3.65s2.55 1.45 2.55 3.65c0 1.43-.88 2.25-2.55 2.25S5.45 7.63 5.45 6.2Z"/>
  <path fill="#FFFFFF" d="M4.38 10.15c0-1.5 1.55-2.7 3.62-2.7s3.62 1.2 3.62 2.7c0 1.65-1.48 2.85-3.62 2.85s-3.62-1.2-3.62-2.85Z"/>
  <circle cx="6.9" cy="4.86" r=".43" fill="#111827"/>
  <circle cx="9.1" cy="4.86" r=".43" fill="#111827"/>
  <path fill="#F59E0B" d="M7.3 5.95h1.4L8 6.72z"/>
  <path fill="#EF4444" d="M4.45 8.35c.8.35 1.92.55 3.55.55s2.75-.2 3.55-.55c.15.32.24.67.27 1.03-1.03.45-2.18.67-3.82.67s-2.8-.22-3.82-.67c.03-.36.12-.71.27-1.03Z"/>
  <path fill="#F59E0B" d="M5.35 13.1h2.2l-.85 1H4.85zM8.45 13.1h2.2l.5 1H9.3z"/>
</svg>
