<svg t="1676614937916" class="icon" viewBox="0 0 1024 1024" version="1.1" xmlns="http://www.w3.org/2000/svg" p-id="7710" width="16" height="16"><path d="M950.371072 532.795629l-84.398202-84.393085c-6.101975-6.096858-14.093996-9.145287-22.087041-9.143241-7.995091-0.001023-15.988136 3.047406-22.079878 9.148357l-84.519975 84.530209c-12.20088 12.195763-12.20088 31.971156 0 44.171012 6.099928 6.094812 14.09195 9.145287 22.082948 9.145287s15.993253-3.050476 22.082948-9.150404l33.171494-33.175587c-16.019859 175.330214-163.813926 313.145-343.250668 313.145-190.096523 0-344.749812-154.653289-344.749812-344.749812s154.653289-344.754928 344.749812-344.754928c92.084255 0 178.658006 35.859719 243.779166 100.975762 12.20088 12.20088 31.966039 12.20088 44.166919 0 12.20088-12.195763 12.20088-31.971156 0-44.166919-76.914764-76.91988-179.176822-119.27657-287.946085-119.27657-224.543056 0-407.217539 182.679599-407.217539 407.222655 0 224.537939 182.674483 407.217539 407.217539 407.217539 212.604142 0 387.574153-163.800623 405.591505-371.808074l29.239951 29.238928c6.099928 6.094812 14.09195 9.145287 22.082948 9.145287 7.990998 0 15.98302-3.050476 22.082948-9.150404C962.571952 564.770877 962.571952 544.995485 950.371072 532.795629z" fill="#1296db" p-id="7711"></path><path d="M411.244248 429.099918l22.082948-22.082948c12.20088-12.195763 12.20088-31.971156 0-44.166919-12.20088-12.20088-31.966039-12.20088-44.166919 0l-22.082948 22.082948c-12.20088 12.195763-12.20088 31.971156 0 44.166919 6.099928 6.099928 14.09195 9.150404 22.082948 9.150404S405.143297 435.199847 411.244248 429.099918z" fill="#1296db" p-id="7712"></path><path d="M565.846372 539.536146l-22.082948 22.082948c-12.20088 12.195763-12.20088 31.971156 0 44.166919 6.099928 6.099928 14.09195 9.150404 22.082948 9.150404s15.98302-3.050476 22.082948-9.150404l22.082948-22.082948c12.20088-12.195763 12.20088-31.971156 0-44.165896C597.812411 527.335267 578.047252 527.335267 565.846372 539.536146z" fill="#1296db" p-id="7713"></path><path d="M336.453868 521.093099c-4.869914 20.679995-4.809539 63.99757 26.373671 95.175663 22.663162 22.658046 51.944046 29.03222 74.18049 29.03222 8.194636 0 15.433504-0.868787 21.025872-2.104941 16.694217-3.691065 27.115568-20.070104 23.638373-36.810371-3.477194-16.730033-19.968797-27.578102-36.754089-24.258497-0.25378 0.035816-23.5166 4.376681-37.923728-10.030447-14.010085-14.020318-9.953699-35.539424-9.658987-37.003775 3.741207-16.673751-6.639211-33.302477-23.312962-37.231973C357.26587 493.89055 340.408947 504.296551 336.453868 521.093099z" fill="#1296db" p-id="7714"></path></svg>