<svg t="1732766067026" class="icon" viewBox="0 0 1024 1024" version="1.1" xmlns="http://www.w3.org/2000/svg" p-id="2350"
     width="16" height="16">
    <path d="M512 981.333333A469.888 469.888 0 0 1 42.666667 512 469.888 469.888 0 0 1 512 42.666667a469.845333 469.845333 0 0 1 469.333333 469.333333 469.845333 469.845333 0 0 1-469.333333 469.333333z m0-814.933333a31.274667 31.274667 0 0 0-27.733333 17.066667L395.605333 363.050667l-198.613333 28.928a30.976 30.976 0 0 0-25.002667 21.333333 30.634667 30.634667 0 0 0 7.936 31.786667l143.488 139.648-34.133333 197.504a30.933333 30.933333 0 0 0 12.458667 30.464 30.805333 30.805333 0 0 0 18.218666 5.930666 30.72 30.72 0 0 0 14.506667-3.626666l177.237333-93.269334 177.28 93.269334a30.890667 30.890667 0 0 0 14.336 3.541333 30.08 30.08 0 0 0 18.218667-6.016 31.36 31.36 0 0 0 12.458667-30.464l-34.133334-197.504 143.488-139.605333a30.549333 30.549333 0 0 0 7.765334-31.658667 30.848 30.848 0 0 0-24.96-21.333333l-198.229334-28.928L539.306667 183.466667a31.146667 31.146667 0 0 0-27.306667-17.066667z"
          p-id="2351" fill="#bfbfbf"></path>
</svg>