<svg t="1676529486652" class="icon" viewBox="0 0 1024 1024" version="1.1" xmlns="http://www.w3.org/2000/svg" p-id="3601" width="16" height="16"><path d="M550.058667 106.666667c6.336 0 11.818667 4.501333 13.056 10.752l17.194667 85.802667c2.965333 14.826667 13.568 26.965333 27.84 31.936 10.474667 3.626667 21.12 8.042667 31.594667 13.12 5.888 2.837333 12.224 4.245333 18.56 4.245333 8.277333 0 16.533333-2.410667 23.658667-7.146667l73.088-48.682667c2.645333-1.770667 5.354667-2.154667 7.168-2.154667 2.538667 0 6.250667 0.682667 9.493333 3.925333l53.930667 53.930667c4.437333 4.437333 5.12 11.498667 1.621333 16.746667L778.666667 342.08c-8.362667 12.544-9.493333 28.565333-2.944 42.154667 5.205333 10.816 9.621333 21.44 13.162667 31.616 4.970667 14.250667 17.109333 24.832 31.914667 27.797333l85.824 17.194667c0.490667 0.106667 0.96 0.192 1.450667 0.256 5.504 1.770667 9.365333 6.912 9.365333 12.736l0 76.181333c0 6.336-4.458667 11.818667-10.730667 13.056l-85.824 17.130667c-14.848 2.965333-26.986667 13.568-31.957333 27.861333-3.626667 10.474667-8.042667 21.12-13.12 31.594667-6.570667 13.610667-5.461333 29.674667 2.922667 42.24l48.618667 72.938667c3.498667 5.269333 2.794667 12.330667-1.664 16.789333l-53.802667 53.802667c-2.581333 2.581333-5.994667 3.989333-9.557333 3.989333-2.56 0-5.12-0.789333-7.317333-2.24l-72.938667-48.618667c-7.125333-4.757333-15.381333-7.168-23.658667-7.168-6.293333 0-12.629333 1.386667-18.474667 4.224-10.816 5.205333-21.461333 9.621333-31.616 13.162667-14.293333 4.949333-24.874667 17.109333-27.84 31.936l-17.216 85.888C561.984 912.810667 556.501333 917.333333 550.165333 917.333333l-76.181333 0c-6.357333 0-11.861333-4.501333-13.12-10.730667l-17.130667-85.824c-2.965333-14.826667-13.568-26.986667-27.861333-31.957333-10.538667-3.648-21.12-8.064-31.466667-13.077333-5.909333-2.858667-12.288-4.288-18.645333-4.288-8.277333 0-16.533333 2.410667-23.658667 7.168l-72.832 48.554667c-2.282667 1.514667-4.864 2.304-7.466667 2.304-2.538667 0-6.250667-0.682667-9.493333-3.904L198.4 771.648c-4.458667-4.437333-5.141333-11.477333-1.621333-16.768l48.554667-72.938667c8.384-12.586667 9.472-28.672 2.858667-42.282667-5.034667-10.368-9.429333-20.949333-13.077333-31.466667-4.949333-14.293333-17.109333-24.896-31.936-27.861333l-85.909333-17.216c-6.208-1.237333-10.709333-6.72-10.709333-13.056l0-76.181333c0-6.357333 4.501333-11.861333 10.730667-13.098667l85.866667-17.130667c14.848-2.965333 27.008-13.568 31.957333-27.861333 3.648-10.517333 8.042667-21.12 13.077333-31.466667 6.613333-13.610667 5.504-29.717333-2.88-42.304l-48.618667-72.938667c-3.498667-5.248-2.794667-12.330667 1.664-16.789333L252.266667 198.4c3.242667-3.242667 6.954667-3.904 9.493333-3.904 2.645333 0 5.141333 0.768 7.36 2.24l72.874667 48.618667c7.125333 4.757333 15.381333 7.168 23.68 7.168 6.357333 0 12.736-1.408 18.645333-4.288 10.325333-5.013333 20.928-9.429333 31.466667-13.098667 14.250667-4.970667 24.832-17.109333 27.797333-31.914667l17.194667-85.781333C462.016 111.210667 467.541333 106.666667 473.877333 106.666667L550.058667 106.666667M511.978667 725.333333c117.632 0 213.333333-95.701333 213.333333-213.333333s-95.701333-213.333333-213.333333-213.333333-213.333333 95.701333-213.333333 213.333333S394.346667 725.333333 511.978667 725.333333M550.058667 64l-76.181333 0c-26.666667 0-49.685333 18.88-54.954667 45.034667l-17.194667 85.802667c-12.373333 4.309333-24.426667 9.365333-36.074667 15.018667l-72.874667-48.618667c-9.514667-6.336-20.266667-9.408-31.04-9.408-14.506667 0-28.8 5.546667-39.658667 16.405333l-53.888 53.888C149.333333 241.002667 146.432 270.570667 161.216 292.757333l48.618667 72.938667c-5.653333 11.648-10.709333 23.701333-15.018667 36.138667l-85.866667 17.130667c-26.218667 5.205333-45.034667 28.224-45.034667 54.954667l0 76.181333c0 26.666667 18.88 49.685333 45.034667 54.890667l85.866667 17.194667c4.309333 12.437333 9.344 24.469333 15.018667 36.138667l-48.554667 72.938667c-14.784 22.186667-11.882667 51.818667 6.997333 70.634667l53.888 53.888c10.858667 10.858667 25.152 16.405333 39.658667 16.405333 10.752 0 21.568-3.136 31.04-9.408l72.938667-48.618667c11.648 5.653333 23.701333 10.688 36.138667 15.018667l17.130667 85.824C424.256 941.184 447.274667 960 473.984 960l76.181333 0c26.666667 0 49.685333-18.88 54.890667-45.098667l17.194667-85.824c12.437333-4.309333 24.469333-9.408 36.138667-15.018667l72.938667 48.618667c9.472 6.336 20.330667 9.408 30.976 9.408 14.506667 0 28.8-5.610667 39.658667-16.405333l53.888-53.888c18.88-18.88 21.781333-48.448 6.997333-70.634667l-48.618667-72.938667c5.653333-11.712 10.709333-23.744 15.018667-36.181333l85.824-17.130667c26.154667-5.162667 45.034667-28.224 45.034667-54.890667l0-76.181333c0-26.666667-18.88-49.685333-45.098667-54.954667l0 0.106667-85.824-17.194667c-4.309333-12.373333-9.408-24.426667-15.018667-36.074667l48.618667-72.938667c14.784-22.229333 11.882667-51.818667-6.997333-70.634667l-53.888-53.888C791.04 157.44 776.746667 151.893333 762.24 151.893333c-10.709333 0-21.568 3.072-30.976 9.408L658.346667 209.856c-11.712-5.653333-23.744-10.709333-36.181333-15.018667l-17.194667-85.802667C599.744 82.816 576.725333 64 550.058667 64L550.058667 64zM511.978667 682.666667c-94.250667 0-170.666667-76.416-170.666667-170.666667s76.416-170.666667 170.666667-170.666667 170.666667 76.416 170.666667 170.666667S606.229333 682.666667 511.978667 682.666667L511.978667 682.666667z" fill="#797B82" p-id="3602"></path></svg>