<svg t="1676086049798" class="icon" viewBox="0 0 1024 1024" version="1.1" xmlns="http://www.w3.org/2000/svg" p-id="2706" width="16" height="16"><path d="M813.7 896H210.3c-45.4 0-82.3-36.9-82.3-82.3V210.3c0-45.4 36.9-82.3 82.3-82.3H512c17.7 0 32 14.3 32 32s-14.3 32-32 32H210.3c-9.9 0-18.3 8.4-18.3 18.3v603.4c0 9.9 8.4 18.3 18.3 18.3h603.4c9.9 0 18.3-8.4 18.3-18.3V512c0-17.7 14.3-32 32-32s32 14.3 32 32v301.7c0 45.4-36.9 82.3-82.3 82.3z" p-id="2707" fill="#1296db"></path><path d="M802.4 197.3l24.4 24.4L536.4 512H512v-24.4l290.4-290.3m0-68c-13.9 0-27.8 5.3-38.4 15.9l-316 316v60.5c0 30 24.3 54.3 54.3 54.3h60.5l316-316c21.2-21.2 21.2-55.6 0-76.8l-38-38c-10.6-10.6-24.5-15.9-38.4-15.9z" p-id="2708" fill="#1296db"></path></svg>