<svg t="1726209387980" class="icon" viewBox="0 0 1024 1024" version="1.1" xmlns="http://www.w3.org/2000/svg" p-id="3990"
     width="16" height="16">
    <path d="M69.024 335.776l86.016 544.8a32 32 0 0 0 36.416 26.624l672.736-102.368a32 32 0 0 0 26.784-36.608L804.96 223.424a32 32 0 0 0-36.416-26.624L95.808 299.168a32 32 0 0 0-26.784 36.608z"
          fill="#488CF3" p-id="3991"></path>
    <path d="M1017.696 233.728l-28.48 106.08a24 24 0 0 1-29.376 16.96l-44-11.744a23.04 23.04 0 0 1-15.104-14.528 64.48 64.48 0 0 0-47.68-35.392c-34.112-9.152-59.904-1.216-64.48 15.84l-9.92 37.024a32 32 0 0 1-39.2 22.624l-123.584-33.056a32 32 0 0 1-22.624-39.168l17.504-65.216a15.584 15.584 0 0 0-11.04-18.944c-85.024-23.872-137.792 28.704-168.512 83.648a16.16 16.16 0 0 1-17.28 7.104l-9.504-2.56a12.16 12.16 0 0 1-8.448-14.976v-0.128c28.448-105.888 163.2-201.152 263.552-174.272l155.104 41.504a23.04 23.04 0 0 1 15.136 14.528 64.48 64.48 0 0 0 47.648 35.392c19.584 7.424 41.6 4.864 58.976-6.848a23.04 23.04 0 0 1 20.352-5.024l44 11.776a24 24 0 0 1 16.96 29.376zM632.32 377.184l73.6 19.712c12.8 3.424 20.512 16.48 17.376 29.376l-109.344 447.136a65.184 65.184 0 0 1-80.128 47.456l-14.72-3.936a65.088 65.088 0 0 1-45.664-81.152l129.088-441.824a24.448 24.448 0 0 1 29.76-16.768z"
          fill="#475266" p-id="3992"></path>
</svg>